<mxfile host="Electron" agent="Mozilla/5.0 (Windows NT 10.0; Win64; x64) AppleWebKit/537.36 (KHTML, like Gecko) draw.io/27.0.9 Chrome/134.0.6998.205 Electron/35.4.0 Safari/537.36" version="27.0.9" pages="3">
  <diagram name="요구사항확인" id="si9WiEyHauwOeKY3Vzi-">
    <mxGraphModel dx="1090" dy="833" grid="1" gridSize="10" guides="1" tooltips="1" connect="1" arrows="1" fold="1" page="1" pageScale="1" pageWidth="827" pageHeight="1169" math="0" shadow="0">
      <root>
        <mxCell id="0" />
        <mxCell id="1" parent="0" />
        <mxCell id="LVaz8bQsQqEIjGHbkDQo-53" value="" style="shape=card;whiteSpace=wrap;html=1;" parent="1" vertex="1">
          <mxGeometry x="25" y="10" width="765" height="650" as="geometry" />
        </mxCell>
        <mxCell id="LVaz8bQsQqEIjGHbkDQo-33" value="" style="rounded=0;whiteSpace=wrap;html=1;" parent="1" vertex="1">
          <mxGeometry x="530" y="110" width="240" height="530" as="geometry" />
        </mxCell>
        <mxCell id="LVaz8bQsQqEIjGHbkDQo-32" value="" style="rounded=0;whiteSpace=wrap;html=1;" parent="1" vertex="1">
          <mxGeometry x="285" y="110" width="240" height="530" as="geometry" />
        </mxCell>
        <mxCell id="LVaz8bQsQqEIjGHbkDQo-31" value="" style="rounded=0;whiteSpace=wrap;html=1;" parent="1" vertex="1">
          <mxGeometry x="40" y="110" width="240" height="530" as="geometry" />
        </mxCell>
        <mxCell id="LVaz8bQsQqEIjGHbkDQo-35" value="인증 서비스" style="rounded=0;whiteSpace=wrap;html=1;fillColor=#e1d5e7;strokeColor=#9673a6;" parent="1" vertex="1">
          <mxGeometry x="40" y="110" width="240" height="30" as="geometry" />
        </mxCell>
        <mxCell id="LVaz8bQsQqEIjGHbkDQo-36" value="인증 서비스" style="rounded=0;whiteSpace=wrap;html=1;fillColor=#e1d5e7;strokeColor=#9673a6;" parent="1" vertex="1">
          <mxGeometry x="285" y="110" width="240" height="30" as="geometry" />
        </mxCell>
        <mxCell id="LVaz8bQsQqEIjGHbkDQo-37" value="인증 서비스" style="rounded=0;whiteSpace=wrap;html=1;fillColor=#e1d5e7;strokeColor=#9673a6;" parent="1" vertex="1">
          <mxGeometry x="530" y="110" width="240" height="30" as="geometry" />
        </mxCell>
        <mxCell id="LVaz8bQsQqEIjGHbkDQo-39" value="패치 서비스" style="rounded=0;whiteSpace=wrap;html=1;fillColor=#e1d5e7;strokeColor=#9673a6;" parent="1" vertex="1">
          <mxGeometry x="40" y="280" width="240" height="30" as="geometry" />
        </mxCell>
        <mxCell id="LVaz8bQsQqEIjGHbkDQo-40" value="패치 서비스" style="rounded=0;whiteSpace=wrap;html=1;fillColor=#e1d5e7;strokeColor=#9673a6;" parent="1" vertex="1">
          <mxGeometry x="285" y="280" width="240" height="30" as="geometry" />
        </mxCell>
        <mxCell id="LVaz8bQsQqEIjGHbkDQo-41" value="패치 서비스" style="rounded=0;whiteSpace=wrap;html=1;fillColor=#e1d5e7;strokeColor=#9673a6;" parent="1" vertex="1">
          <mxGeometry x="530" y="280" width="240" height="30" as="geometry" />
        </mxCell>
        <mxCell id="LVaz8bQsQqEIjGHbkDQo-43" value="&lt;span style=&quot;text-wrap-mode: nowrap;&quot;&gt;피드백서비스&lt;/span&gt;" style="rounded=0;whiteSpace=wrap;html=1;fillColor=#e1d5e7;strokeColor=#9673a6;" parent="1" vertex="1">
          <mxGeometry x="40" y="450" width="240" height="30" as="geometry" />
        </mxCell>
        <mxCell id="LVaz8bQsQqEIjGHbkDQo-44" value="&lt;span style=&quot;text-wrap-mode: nowrap;&quot;&gt;피드백서비스&lt;/span&gt;" style="rounded=0;whiteSpace=wrap;html=1;fillColor=#e1d5e7;strokeColor=#9673a6;" parent="1" vertex="1">
          <mxGeometry x="285" y="450" width="240" height="30" as="geometry" />
        </mxCell>
        <mxCell id="LVaz8bQsQqEIjGHbkDQo-45" value="&lt;span style=&quot;text-wrap-mode: nowrap;&quot;&gt;피드백서비스&lt;/span&gt;" style="rounded=0;whiteSpace=wrap;html=1;fillColor=#e1d5e7;strokeColor=#9673a6;" parent="1" vertex="1">
          <mxGeometry x="530" y="450" width="240" height="30" as="geometry" />
        </mxCell>
        <mxCell id="LVaz8bQsQqEIjGHbkDQo-2" value="&lt;font style=&quot;font-size: 24px;&quot;&gt;오버워치 패치보드&lt;/font&gt;" style="text;html=1;align=center;verticalAlign=middle;resizable=0;points=[];autosize=1;strokeColor=none;fillColor=none;" parent="1" vertex="1">
          <mxGeometry x="290" y="20" width="210" height="40" as="geometry" />
        </mxCell>
        <mxCell id="LVaz8bQsQqEIjGHbkDQo-3" value="사서" style="text;html=1;align=center;verticalAlign=middle;resizable=0;points=[];autosize=1;strokeColor=none;fillColor=none;" parent="1" vertex="1">
          <mxGeometry x="290" y="68" width="50" height="30" as="geometry" />
        </mxCell>
        <mxCell id="LVaz8bQsQqEIjGHbkDQo-4" value="비회원" style="text;html=1;align=center;verticalAlign=middle;resizable=0;points=[];autosize=1;strokeColor=none;fillColor=none;" parent="1" vertex="1">
          <mxGeometry x="560" y="68" width="60" height="30" as="geometry" />
        </mxCell>
        <mxCell id="LVaz8bQsQqEIjGHbkDQo-5" value="회원" style="text;html=1;align=center;verticalAlign=middle;resizable=0;points=[];autosize=1;strokeColor=none;fillColor=none;" parent="1" vertex="1">
          <mxGeometry x="40" y="68" width="50" height="30" as="geometry" />
        </mxCell>
        <mxCell id="LVaz8bQsQqEIjGHbkDQo-20" value="&lt;div style=&quot;text-align: center;&quot;&gt;&lt;br&gt;&lt;/div&gt;&lt;div&gt;1. 비회원은 패치내용을 읽을(Read) 수 있다.&lt;/div&gt;&lt;div&gt;&lt;br&gt;&lt;/div&gt;" style="text;html=1;align=left;verticalAlign=middle;resizable=0;points=[];autosize=1;strokeColor=none;fillColor=none;fontSize=11;" parent="1" vertex="1">
          <mxGeometry x="40" y="355" width="230" height="50" as="geometry" />
        </mxCell>
        <mxCell id="LVaz8bQsQqEIjGHbkDQo-21" value="1. 비회원은 계정을 생성(Create)할 수 있다." style="text;align=left;verticalAlign=middle;resizable=0;points=[];autosize=1;strokeColor=none;fillColor=none;fontSize=11;labelPosition=center;verticalLabelPosition=middle;" parent="1" vertex="1">
          <mxGeometry x="40" y="190" width="220" height="30" as="geometry" />
        </mxCell>
        <mxCell id="LVaz8bQsQqEIjGHbkDQo-22" value="&lt;div style=&quot;font-size: 12px; text-align: center;&quot;&gt;&lt;span style=&quot;background-color: transparent; color: light-dark(rgb(0, 0, 0), rgb(255, 255, 255)); text-align: left;&quot;&gt;1. 비회원은 피드백을 읽을(Read) 수 있다.&lt;/span&gt;&lt;/div&gt;" style="text;html=1;align=left;verticalAlign=middle;resizable=0;points=[];autosize=1;strokeColor=none;fillColor=none;fontSize=10;" parent="1" vertex="1">
          <mxGeometry x="40" y="540" width="230" height="30" as="geometry" />
        </mxCell>
        <mxCell id="LVaz8bQsQqEIjGHbkDQo-23" value="&lt;div&gt;1. 개발자는 로그인을&lt;span style=&quot;background-color: transparent; color: light-dark(rgb(0, 0, 0), rgb(255, 255, 255));&quot;&gt;(Process)&lt;/span&gt;&lt;span style=&quot;background-color: transparent; color: light-dark(rgb(0, 0, 0), rgb(255, 255, 255));&quot;&gt;할 수 있다.&lt;/span&gt;&lt;/div&gt;&lt;div&gt;2. 개발자는 로그아웃을&lt;span style=&quot;background-color: transparent; color: light-dark(rgb(0, 0, 0), rgb(255, 255, 255));&quot;&gt;(Process)&lt;/span&gt;&lt;span style=&quot;background-color: transparent; color: light-dark(rgb(0, 0, 0), rgb(255, 255, 255));&quot;&gt;할 수 있다.&lt;/span&gt;&lt;/div&gt;&lt;div&gt;3. 개발자는 계정을 생성(Create)할 수 있다.&lt;/div&gt;&lt;div&gt;4. 개발자는 정보를 읽을(Read) 수 있다&lt;/div&gt;&lt;div&gt;5. 개발자는회원정보를 변경(&lt;span style=&quot;background-color: transparent; color: light-dark(rgb(0, 0, 0), rgb(255, 255, 255));&quot;&gt;Update&lt;/span&gt;&lt;span style=&quot;background-color: transparent; color: light-dark(rgb(0, 0, 0), rgb(255, 255, 255));&quot;&gt;)할 수 있다.&lt;/span&gt;&lt;/div&gt;&lt;div&gt;6. 개발자는 회원정보를 삭제(Delete)할 수있다.&lt;br&gt;&lt;/div&gt;" style="text;html=1;align=left;verticalAlign=middle;resizable=0;points=[];autosize=1;strokeColor=none;fillColor=none;fontSize=11;" parent="1" vertex="1">
          <mxGeometry x="530" y="165" width="240" height="90" as="geometry" />
        </mxCell>
        <mxCell id="LVaz8bQsQqEIjGHbkDQo-25" value="&lt;div&gt;&lt;span&gt;1. 회원은 로그인을(Process)할 수 있다.&lt;/span&gt;&lt;/div&gt;&lt;div&gt;&lt;span&gt;2. 회원은 로그아웃을&lt;/span&gt;&lt;span style=&quot;background-color: transparent; color: light-dark(rgb(0, 0, 0), rgb(255, 255, 255));&quot;&gt;(Process)&lt;/span&gt;&lt;span style=&quot;background-color: transparent; color: light-dark(rgb(0, 0, 0), rgb(255, 255, 255));&quot;&gt;할 수 있다.&lt;/span&gt;&lt;/div&gt;&lt;div&gt;&lt;span&gt;3. 회원은 본인정보를 읽을(Read) 수 있다.&lt;/span&gt;&lt;/div&gt;&lt;div&gt;&lt;span&gt;4. 회원은 본인정보를 변경(&lt;/span&gt;&lt;span style=&quot;color: light-dark(rgb(0, 0, 0), rgb(255, 255, 255)); background-color: transparent;&quot;&gt;Update&lt;/span&gt;&lt;span style=&quot;color: light-dark(rgb(0, 0, 0), rgb(255, 255, 255)); background-color: transparent;&quot;&gt;)할 수 있다.&lt;/span&gt;&lt;/div&gt;&lt;div&gt;&lt;span style=&quot;background-color: transparent; color: light-dark(rgb(0, 0, 0), rgb(255, 255, 255));&quot;&gt;5. 회원은 본인정보를 삭제(Delete)할 수 있다.&lt;/span&gt;&lt;/div&gt;" style="text;html=1;align=left;verticalAlign=middle;resizable=0;points=[];autosize=1;strokeColor=none;fillColor=none;fontSize=11;" parent="1" vertex="1">
          <mxGeometry x="285" y="165" width="240" height="80" as="geometry" />
        </mxCell>
        <mxCell id="LVaz8bQsQqEIjGHbkDQo-28" value="1. 회원은 패치내용을 읽을(Read) 수 있다." style="text;align=left;verticalAlign=middle;resizable=0;points=[];autosize=1;strokeColor=none;fillColor=none;fontSize=11;" parent="1" vertex="1">
          <mxGeometry x="285" y="365" width="220" height="30" as="geometry" />
        </mxCell>
        <mxCell id="LVaz8bQsQqEIjGHbkDQo-29" value="&lt;div&gt;&lt;font style=&quot;font-size: 11px;&quot;&gt;1. 개발자는 패치내용을 작성(Create)할 수있다.&lt;br&gt;&lt;/font&gt;&lt;/div&gt;&lt;div&gt;&lt;font style=&quot;font-size: 11px;&quot;&gt;2.&amp;nbsp;&lt;span style=&quot;background-color: transparent; color: light-dark(rgb(0, 0, 0), rgb(255, 255, 255));&quot;&gt;개발자는&amp;nbsp;&lt;/span&gt;&lt;span style=&quot;background-color: transparent; color: light-dark(rgb(0, 0, 0), rgb(255, 255, 255));&quot;&gt;패치내용을 읽을(Read) 수 있다.&lt;/span&gt;&lt;/font&gt;&lt;/div&gt;&lt;div&gt;&lt;font style=&quot;font-size: 11px;&quot;&gt;3.&amp;nbsp;&lt;span style=&quot;background-color: transparent; color: light-dark(rgb(0, 0, 0), rgb(255, 255, 255));&quot;&gt;개발자는&amp;nbsp;&lt;/span&gt;&lt;span style=&quot;background-color: transparent; color: light-dark(rgb(0, 0, 0), rgb(255, 255, 255));&quot;&gt;패치내용을 수정(Update)할 수 있다.&lt;/span&gt;&lt;/font&gt;&lt;/div&gt;&lt;div&gt;&lt;font style=&quot;font-size: 11px;&quot;&gt;4.&amp;nbsp;&lt;span style=&quot;background-color: transparent; color: light-dark(rgb(0, 0, 0), rgb(255, 255, 255));&quot;&gt;개발자는&amp;nbsp;&lt;/span&gt;&lt;span style=&quot;background-color: transparent; color: light-dark(rgb(0, 0, 0), rgb(255, 255, 255));&quot;&gt;패치내용을 삭제(Delete)할 수 있다.&lt;/span&gt;&lt;/font&gt;&lt;/div&gt;" style="text;html=1;align=left;verticalAlign=middle;resizable=0;points=[];autosize=1;strokeColor=none;fillColor=none;fontSize=12;" parent="1" vertex="1">
          <mxGeometry x="530" y="345" width="250" height="70" as="geometry" />
        </mxCell>
        <mxCell id="LVaz8bQsQqEIjGHbkDQo-30" value="&lt;div style=&quot;&quot;&gt;&lt;font style=&quot;font-size: 11px;&quot;&gt;1. 회원은 피드백을 작성(Create)할 수 있다.&lt;br&gt;&lt;/font&gt;&lt;/div&gt;&lt;div style=&quot;&quot;&gt;&lt;font style=&quot;font-size: 11px;&quot;&gt;2.&amp;nbsp;&lt;/font&gt;&lt;span style=&quot;font-size: 11px; background-color: transparent; color: light-dark(rgb(0, 0, 0), rgb(255, 255, 255));&quot;&gt;회원은&amp;nbsp;&lt;/span&gt;&lt;span style=&quot;font-size: 11px; background-color: transparent; color: light-dark(rgb(0, 0, 0), rgb(255, 255, 255));&quot;&gt;피드백을 읽을(Read) 수 있다.&lt;/span&gt;&lt;/div&gt;&lt;div style=&quot;&quot;&gt;&lt;font style=&quot;font-size: 11px;&quot;&gt;3.&amp;nbsp;&lt;/font&gt;&lt;span style=&quot;font-size: 11px; background-color: transparent; color: light-dark(rgb(0, 0, 0), rgb(255, 255, 255));&quot;&gt;회원은&amp;nbsp;&lt;/span&gt;&lt;span style=&quot;font-size: 11px; background-color: transparent; color: light-dark(rgb(0, 0, 0), rgb(255, 255, 255));&quot;&gt;본인의 피드백을 수정(Update)할 수 있다.&lt;/span&gt;&lt;/div&gt;&lt;div style=&quot;&quot;&gt;&lt;font style=&quot;font-size: 11px;&quot;&gt;4.&amp;nbsp;&lt;span style=&quot;color: light-dark(rgb(0, 0, 0), rgb(255, 255, 255)); background-color: transparent;&quot;&gt;회원은&amp;nbsp;&lt;/span&gt;&lt;span style=&quot;color: light-dark(rgb(0, 0, 0), rgb(255, 255, 255)); background-color: transparent;&quot;&gt;본인의&lt;/span&gt;&amp;nbsp;피드백을 삭제(Delete)할 수 있다.&lt;/font&gt;&lt;/div&gt;" style="text;html=1;align=left;verticalAlign=middle;resizable=0;points=[];autosize=1;strokeColor=none;fillColor=none;fontSize=10;" parent="1" vertex="1">
          <mxGeometry x="285" y="520" width="260" height="70" as="geometry" />
        </mxCell>
        <mxCell id="LVaz8bQsQqEIjGHbkDQo-49" value="&lt;span style=&quot;text-align: left; text-wrap-mode: nowrap;&quot;&gt;비회원&lt;/span&gt;" style="rounded=0;whiteSpace=wrap;html=1;fillColor=#dae8fc;strokeColor=#6c8ebf;" parent="1" vertex="1">
          <mxGeometry x="40" y="68" width="240" height="30" as="geometry" />
        </mxCell>
        <mxCell id="LVaz8bQsQqEIjGHbkDQo-50" value="회원" style="rounded=0;whiteSpace=wrap;html=1;fillColor=#dae8fc;strokeColor=#6c8ebf;" parent="1" vertex="1">
          <mxGeometry x="285" y="68" width="240" height="30" as="geometry" />
        </mxCell>
        <mxCell id="LVaz8bQsQqEIjGHbkDQo-52" value="개발자" style="rounded=0;whiteSpace=wrap;html=1;fillColor=#dae8fc;strokeColor=#6c8ebf;" parent="1" vertex="1">
          <mxGeometry x="530" y="68" width="240" height="30" as="geometry" />
        </mxCell>
        <mxCell id="H03WoxQe7pIqqVwJrNb9-1" value="&lt;div style=&quot;text-align: center;&quot;&gt;&lt;span style=&quot;background-color: transparent; color: light-dark(rgb(0, 0, 0), rgb(255, 255, 255)); text-align: left;&quot;&gt;1. 개발자는 피드백을 작성(Create)할 수 있다.&lt;/span&gt;&lt;/div&gt;&lt;div style=&quot;&quot;&gt;&lt;font&gt;2. 개발자는 피드백을 읽을(Read) 수 있다.&lt;/font&gt;&lt;/div&gt;&lt;div style=&quot;&quot;&gt;&lt;font&gt;3. 개발자는 피드백을 수정(Update)할 수 있다.&lt;/font&gt;&lt;/div&gt;&lt;div style=&quot;&quot;&gt;&lt;font&gt;4. 개발자는 피드백을 삭제(Delete)할 수 있다.&lt;/font&gt;&lt;/div&gt;" style="text;html=1;align=left;verticalAlign=middle;resizable=0;points=[];autosize=1;strokeColor=none;fillColor=none;fontSize=11;" parent="1" vertex="1">
          <mxGeometry x="530" y="520" width="240" height="70" as="geometry" />
        </mxCell>
      </root>
    </mxGraphModel>
  </diagram>
  <diagram id="NpVqkojjGBtacNTk8pGK" name="예제)USECASE">
    <mxGraphModel dx="1902" dy="1867" grid="1" gridSize="10" guides="1" tooltips="1" connect="1" arrows="1" fold="1" page="1" pageScale="1" pageWidth="827" pageHeight="1169" math="0" shadow="0">
      <root>
        <mxCell id="0" />
        <mxCell id="1" parent="0" />
        <mxCell id="hqVK5DMITIR18oNuoHpZ-1" value="도서 관리&amp;nbsp;&lt;span style=&quot;background-color: transparent; color: light-dark(rgb(0, 0, 0), rgb(255, 255, 255));&quot;&gt;시스템&lt;/span&gt;" style="shape=umlFrame;whiteSpace=wrap;html=1;pointerEvents=0;width=110;height=40;" vertex="1" parent="1">
          <mxGeometry x="110" y="60" width="600" height="860" as="geometry" />
        </mxCell>
        <mxCell id="hqVK5DMITIR18oNuoHpZ-2" value="회원" style="shape=umlActor;verticalLabelPosition=bottom;verticalAlign=top;html=1;" vertex="1" parent="1">
          <mxGeometry x="30" y="190" width="30" height="60" as="geometry" />
        </mxCell>
        <mxCell id="hqVK5DMITIR18oNuoHpZ-3" value="비회원" style="shape=umlActor;verticalLabelPosition=bottom;verticalAlign=top;html=1;" vertex="1" parent="1">
          <mxGeometry x="30" y="510" width="30" height="60" as="geometry" />
        </mxCell>
        <mxCell id="hqVK5DMITIR18oNuoHpZ-4" value="사서" style="shape=umlActor;verticalLabelPosition=bottom;verticalAlign=top;html=1;" vertex="1" parent="1">
          <mxGeometry x="747" y="190" width="30" height="60" as="geometry" />
        </mxCell>
        <mxCell id="hqVK5DMITIR18oNuoHpZ-5" value="도서조회" style="ellipse;whiteSpace=wrap;html=1;" vertex="1" parent="1">
          <mxGeometry x="190" y="160" width="140" height="70" as="geometry" />
        </mxCell>
        <mxCell id="hqVK5DMITIR18oNuoHpZ-6" value="도서등록" style="ellipse;whiteSpace=wrap;html=1;" vertex="1" parent="1">
          <mxGeometry x="490" y="290" width="140" height="70" as="geometry" />
        </mxCell>
        <mxCell id="hqVK5DMITIR18oNuoHpZ-7" value="도서수정" style="ellipse;whiteSpace=wrap;html=1;" vertex="1" parent="1">
          <mxGeometry x="490" y="410" width="140" height="70" as="geometry" />
        </mxCell>
        <mxCell id="hqVK5DMITIR18oNuoHpZ-8" value="도서삭제" style="ellipse;whiteSpace=wrap;html=1;" vertex="1" parent="1">
          <mxGeometry x="490" y="530" width="140" height="70" as="geometry" />
        </mxCell>
        <mxCell id="hqVK5DMITIR18oNuoHpZ-11" value="use" style="html=1;verticalAlign=bottom;endArrow=block;curved=0;rounded=0;entryX=-0.014;entryY=0.6;entryDx=0;entryDy=0;entryPerimeter=0;exitX=1;exitY=0.3333333333333333;exitDx=0;exitDy=0;exitPerimeter=0;" edge="1" parent="1" source="hqVK5DMITIR18oNuoHpZ-2" target="hqVK5DMITIR18oNuoHpZ-5">
          <mxGeometry width="80" relative="1" as="geometry">
            <mxPoint x="324" y="290" as="sourcePoint" />
            <mxPoint x="404" y="290" as="targetPoint" />
          </mxGeometry>
        </mxCell>
        <mxCell id="hqVK5DMITIR18oNuoHpZ-12" value="use" style="html=1;verticalAlign=bottom;endArrow=block;curved=0;rounded=0;exitX=1;exitY=0.3333333333333333;exitDx=0;exitDy=0;exitPerimeter=0;entryX=0;entryY=0.657;entryDx=0;entryDy=0;entryPerimeter=0;" edge="1" parent="1" source="hqVK5DMITIR18oNuoHpZ-3" target="hqVK5DMITIR18oNuoHpZ-5">
          <mxGeometry width="80" relative="1" as="geometry">
            <mxPoint x="220" y="626" as="sourcePoint" />
            <mxPoint x="348" y="610" as="targetPoint" />
          </mxGeometry>
        </mxCell>
        <mxCell id="hqVK5DMITIR18oNuoHpZ-13" value="use" style="html=1;verticalAlign=bottom;endArrow=block;curved=0;rounded=0;exitX=0;exitY=0.3333333333333333;exitDx=0;exitDy=0;exitPerimeter=0;entryX=1;entryY=0.5;entryDx=0;entryDy=0;" edge="1" parent="1" source="hqVK5DMITIR18oNuoHpZ-4" target="hqVK5DMITIR18oNuoHpZ-5">
          <mxGeometry width="80" relative="1" as="geometry">
            <mxPoint x="440" y="664" as="sourcePoint" />
            <mxPoint x="570" y="340" as="targetPoint" />
          </mxGeometry>
        </mxCell>
        <mxCell id="hqVK5DMITIR18oNuoHpZ-14" value="use" style="html=1;verticalAlign=bottom;endArrow=block;curved=0;rounded=0;exitX=0;exitY=0.3333333333333333;exitDx=0;exitDy=0;exitPerimeter=0;entryX=1;entryY=0.5;entryDx=0;entryDy=0;" edge="1" parent="1" source="hqVK5DMITIR18oNuoHpZ-4" target="hqVK5DMITIR18oNuoHpZ-6">
          <mxGeometry width="80" relative="1" as="geometry">
            <mxPoint x="280" y="744" as="sourcePoint" />
            <mxPoint x="410" y="420" as="targetPoint" />
          </mxGeometry>
        </mxCell>
        <mxCell id="hqVK5DMITIR18oNuoHpZ-15" value="로그인" style="ellipse;whiteSpace=wrap;html=1;" vertex="1" parent="1">
          <mxGeometry x="294" y="360" width="140" height="70" as="geometry" />
        </mxCell>
        <mxCell id="hqVK5DMITIR18oNuoHpZ-16" value="" style="endArrow=open;dashed=1;endFill=0;html=1;rounded=0;exitX=0;exitY=0.5;exitDx=0;exitDy=0;entryX=1;entryY=0.5;entryDx=0;entryDy=0;" edge="1" parent="1" source="hqVK5DMITIR18oNuoHpZ-6" target="hqVK5DMITIR18oNuoHpZ-15">
          <mxGeometry width="160" relative="1" as="geometry">
            <mxPoint x="380" y="440" as="sourcePoint" />
            <mxPoint x="540" y="440" as="targetPoint" />
          </mxGeometry>
        </mxCell>
        <mxCell id="hqVK5DMITIR18oNuoHpZ-17" value="&amp;lt;&amp;lt; Include &amp;gt;&amp;gt;" style="edgeLabel;html=1;align=center;verticalAlign=middle;resizable=0;points=[];" vertex="1" connectable="0" parent="hqVK5DMITIR18oNuoHpZ-16">
          <mxGeometry x="0.0125" y="-2" relative="1" as="geometry">
            <mxPoint as="offset" />
          </mxGeometry>
        </mxCell>
        <mxCell id="hqVK5DMITIR18oNuoHpZ-19" value="" style="endArrow=open;dashed=1;endFill=0;html=1;rounded=0;exitX=0;exitY=0.5;exitDx=0;exitDy=0;entryX=0.999;entryY=0.588;entryDx=0;entryDy=0;entryPerimeter=0;" edge="1" parent="1" source="hqVK5DMITIR18oNuoHpZ-7" target="hqVK5DMITIR18oNuoHpZ-15">
          <mxGeometry width="160" relative="1" as="geometry">
            <mxPoint x="556" y="420" as="sourcePoint" />
            <mxPoint x="440" y="400" as="targetPoint" />
          </mxGeometry>
        </mxCell>
        <mxCell id="hqVK5DMITIR18oNuoHpZ-20" value="&amp;lt;&amp;lt; Include &amp;gt;&amp;gt;" style="edgeLabel;html=1;align=center;verticalAlign=middle;resizable=0;points=[];" vertex="1" connectable="0" parent="hqVK5DMITIR18oNuoHpZ-19">
          <mxGeometry x="0.0125" y="-2" relative="1" as="geometry">
            <mxPoint as="offset" />
          </mxGeometry>
        </mxCell>
        <mxCell id="hqVK5DMITIR18oNuoHpZ-21" value="" style="endArrow=open;dashed=1;endFill=0;html=1;rounded=0;exitX=0.011;exitY=0.393;exitDx=0;exitDy=0;entryX=0.976;entryY=0.679;entryDx=0;entryDy=0;entryPerimeter=0;exitPerimeter=0;" edge="1" parent="1" source="hqVK5DMITIR18oNuoHpZ-8" target="hqVK5DMITIR18oNuoHpZ-15">
          <mxGeometry width="160" relative="1" as="geometry">
            <mxPoint x="576" y="490" as="sourcePoint" />
            <mxPoint x="520" y="560" as="targetPoint" />
          </mxGeometry>
        </mxCell>
        <mxCell id="hqVK5DMITIR18oNuoHpZ-22" value="&amp;lt;&amp;lt; Include &amp;gt;&amp;gt;" style="edgeLabel;html=1;align=center;verticalAlign=middle;resizable=0;points=[];" vertex="1" connectable="0" parent="hqVK5DMITIR18oNuoHpZ-21">
          <mxGeometry x="0.0125" y="-2" relative="1" as="geometry">
            <mxPoint as="offset" />
          </mxGeometry>
        </mxCell>
        <mxCell id="hqVK5DMITIR18oNuoHpZ-23" value="전체" style="ellipse;whiteSpace=wrap;html=1;" vertex="1" parent="1">
          <mxGeometry x="180" y="270" width="50" height="50" as="geometry" />
        </mxCell>
        <mxCell id="hqVK5DMITIR18oNuoHpZ-24" value="키워드" style="ellipse;whiteSpace=wrap;html=1;" vertex="1" parent="1">
          <mxGeometry x="310" y="270" width="50" height="50" as="geometry" />
        </mxCell>
        <mxCell id="hqVK5DMITIR18oNuoHpZ-25" value="" style="endArrow=open;dashed=1;endFill=0;html=1;rounded=0;exitX=0.5;exitY=0;exitDx=0;exitDy=0;entryX=0.5;entryY=1;entryDx=0;entryDy=0;" edge="1" parent="1" source="hqVK5DMITIR18oNuoHpZ-23" target="hqVK5DMITIR18oNuoHpZ-5">
          <mxGeometry width="160" relative="1" as="geometry">
            <mxPoint x="364" y="240" as="sourcePoint" />
            <mxPoint x="308" y="310" as="targetPoint" />
          </mxGeometry>
        </mxCell>
        <mxCell id="hqVK5DMITIR18oNuoHpZ-26" value="&amp;lt;&amp;lt; extend &amp;gt;&amp;gt;" style="edgeLabel;html=1;align=center;verticalAlign=middle;resizable=0;points=[];" vertex="1" connectable="0" parent="hqVK5DMITIR18oNuoHpZ-25">
          <mxGeometry x="0.0125" y="-2" relative="1" as="geometry">
            <mxPoint as="offset" />
          </mxGeometry>
        </mxCell>
        <mxCell id="hqVK5DMITIR18oNuoHpZ-27" value="" style="endArrow=open;dashed=1;endFill=0;html=1;rounded=0;exitX=0.5;exitY=0;exitDx=0;exitDy=0;entryX=0.5;entryY=1;entryDx=0;entryDy=0;" edge="1" parent="1" source="hqVK5DMITIR18oNuoHpZ-24" target="hqVK5DMITIR18oNuoHpZ-5">
          <mxGeometry width="160" relative="1" as="geometry">
            <mxPoint x="290" y="340" as="sourcePoint" />
            <mxPoint x="355" y="260" as="targetPoint" />
          </mxGeometry>
        </mxCell>
        <mxCell id="hqVK5DMITIR18oNuoHpZ-28" value="&amp;lt;&amp;lt; extend &amp;gt;&amp;gt;" style="edgeLabel;html=1;align=center;verticalAlign=middle;resizable=0;points=[];" vertex="1" connectable="0" parent="hqVK5DMITIR18oNuoHpZ-27">
          <mxGeometry x="0.0125" y="-2" relative="1" as="geometry">
            <mxPoint as="offset" />
          </mxGeometry>
        </mxCell>
        <mxCell id="hqVK5DMITIR18oNuoHpZ-29" value="회원가입" style="ellipse;whiteSpace=wrap;html=1;" vertex="1" parent="1">
          <mxGeometry x="190" y="650" width="140" height="70" as="geometry" />
        </mxCell>
        <mxCell id="hqVK5DMITIR18oNuoHpZ-30" value="use" style="html=1;verticalAlign=bottom;endArrow=block;curved=0;rounded=0;exitX=1;exitY=0.3333333333333333;exitDx=0;exitDy=0;exitPerimeter=0;entryX=0;entryY=0.5;entryDx=0;entryDy=0;" edge="1" parent="1" source="hqVK5DMITIR18oNuoHpZ-3" target="hqVK5DMITIR18oNuoHpZ-29">
          <mxGeometry width="80" relative="1" as="geometry">
            <mxPoint x="140" y="774" as="sourcePoint" />
            <mxPoint x="270" y="450" as="targetPoint" />
          </mxGeometry>
        </mxCell>
        <mxCell id="hqVK5DMITIR18oNuoHpZ-31" value="관리자" style="shape=umlActor;verticalLabelPosition=bottom;verticalAlign=top;html=1;" vertex="1" parent="1">
          <mxGeometry x="747" y="510" width="30" height="60" as="geometry" />
        </mxCell>
        <mxCell id="hqVK5DMITIR18oNuoHpZ-32" value="use" style="html=1;verticalAlign=bottom;endArrow=block;curved=0;rounded=0;entryX=1;entryY=0.5;entryDx=0;entryDy=0;exitX=0;exitY=0.3333333333333333;exitDx=0;exitDy=0;exitPerimeter=0;" edge="1" parent="1" source="hqVK5DMITIR18oNuoHpZ-4" target="hqVK5DMITIR18oNuoHpZ-7">
          <mxGeometry width="80" relative="1" as="geometry">
            <mxPoint x="750" y="210" as="sourcePoint" />
            <mxPoint x="740" y="465" as="targetPoint" />
          </mxGeometry>
        </mxCell>
        <mxCell id="hqVK5DMITIR18oNuoHpZ-33" value="use" style="html=1;verticalAlign=bottom;endArrow=block;curved=0;rounded=0;entryX=1;entryY=0.5;entryDx=0;entryDy=0;exitX=0;exitY=0.3333333333333333;exitDx=0;exitDy=0;exitPerimeter=0;" edge="1" parent="1" source="hqVK5DMITIR18oNuoHpZ-4" target="hqVK5DMITIR18oNuoHpZ-8">
          <mxGeometry width="80" relative="1" as="geometry">
            <mxPoint x="750" y="220" as="sourcePoint" />
            <mxPoint x="720" y="625" as="targetPoint" />
          </mxGeometry>
        </mxCell>
        <mxCell id="j_uifvDzS9gfMKYm5BqL-1" value="회원관리" style="ellipse;whiteSpace=wrap;html=1;" vertex="1" parent="1">
          <mxGeometry x="490" y="650" width="140" height="70" as="geometry" />
        </mxCell>
        <mxCell id="j_uifvDzS9gfMKYm5BqL-7" value="" style="edgeStyle=orthogonalEdgeStyle;rounded=0;orthogonalLoop=1;jettySize=auto;html=1;endArrow=block;endFill=0;entryX=0.5;entryY=1;entryDx=0;entryDy=0;exitX=0.5;exitY=0;exitDx=0;exitDy=0;" edge="1" parent="1" source="j_uifvDzS9gfMKYm5BqL-2" target="j_uifvDzS9gfMKYm5BqL-1">
          <mxGeometry relative="1" as="geometry">
            <mxPoint x="486.98" y="735" as="sourcePoint" />
            <mxPoint x="562.98" y="680" as="targetPoint" />
            <Array as="points">
              <mxPoint x="459" y="740" />
              <mxPoint x="560" y="740" />
            </Array>
          </mxGeometry>
        </mxCell>
        <mxCell id="j_uifvDzS9gfMKYm5BqL-2" value="조회" style="ellipse;whiteSpace=wrap;html=1;" vertex="1" parent="1">
          <mxGeometry x="434" y="750" width="50" height="50" as="geometry" />
        </mxCell>
        <mxCell id="j_uifvDzS9gfMKYm5BqL-8" value="" style="edgeStyle=orthogonalEdgeStyle;rounded=0;orthogonalLoop=1;jettySize=auto;html=1;endArrow=block;endFill=0;" edge="1" parent="1" source="j_uifvDzS9gfMKYm5BqL-3" target="j_uifvDzS9gfMKYm5BqL-1">
          <mxGeometry relative="1" as="geometry">
            <Array as="points">
              <mxPoint x="525" y="740" />
              <mxPoint x="560" y="740" />
            </Array>
          </mxGeometry>
        </mxCell>
        <mxCell id="j_uifvDzS9gfMKYm5BqL-3" value="등록" style="ellipse;whiteSpace=wrap;html=1;" vertex="1" parent="1">
          <mxGeometry x="500" y="750" width="50" height="50" as="geometry" />
        </mxCell>
        <mxCell id="j_uifvDzS9gfMKYm5BqL-9" value="" style="edgeStyle=orthogonalEdgeStyle;rounded=0;orthogonalLoop=1;jettySize=auto;html=1;endArrow=block;endFill=0;" edge="1" parent="1" source="j_uifvDzS9gfMKYm5BqL-4" target="j_uifvDzS9gfMKYm5BqL-1">
          <mxGeometry relative="1" as="geometry">
            <Array as="points">
              <mxPoint x="595" y="740" />
              <mxPoint x="560" y="740" />
            </Array>
          </mxGeometry>
        </mxCell>
        <mxCell id="j_uifvDzS9gfMKYm5BqL-4" value="수정" style="ellipse;whiteSpace=wrap;html=1;" vertex="1" parent="1">
          <mxGeometry x="570" y="750" width="50" height="50" as="geometry" />
        </mxCell>
        <mxCell id="j_uifvDzS9gfMKYm5BqL-10" value="" style="edgeStyle=orthogonalEdgeStyle;rounded=0;orthogonalLoop=1;jettySize=auto;html=1;endArrow=blockThin;endFill=0;" edge="1" parent="1" source="j_uifvDzS9gfMKYm5BqL-5" target="j_uifvDzS9gfMKYm5BqL-1">
          <mxGeometry relative="1" as="geometry">
            <Array as="points">
              <mxPoint x="665" y="740" />
              <mxPoint x="560" y="740" />
            </Array>
          </mxGeometry>
        </mxCell>
        <mxCell id="j_uifvDzS9gfMKYm5BqL-5" value="삭제" style="ellipse;whiteSpace=wrap;html=1;" vertex="1" parent="1">
          <mxGeometry x="640" y="750" width="50" height="50" as="geometry" />
        </mxCell>
        <mxCell id="j_uifvDzS9gfMKYm5BqL-11" value="사서 계정" style="ellipse;whiteSpace=wrap;html=1;" vertex="1" parent="1">
          <mxGeometry x="434" y="840" width="50" height="50" as="geometry" />
        </mxCell>
        <mxCell id="j_uifvDzS9gfMKYm5BqL-12" value="일반&lt;div&gt;계정&lt;/div&gt;" style="ellipse;whiteSpace=wrap;html=1;" vertex="1" parent="1">
          <mxGeometry x="330" y="830" width="50" height="50" as="geometry" />
        </mxCell>
        <mxCell id="j_uifvDzS9gfMKYm5BqL-13" value="use" style="html=1;verticalAlign=bottom;endArrow=block;curved=0;rounded=0;entryX=1;entryY=0.5;entryDx=0;entryDy=0;exitX=0;exitY=0.3333333333333333;exitDx=0;exitDy=0;exitPerimeter=0;" edge="1" parent="1" source="hqVK5DMITIR18oNuoHpZ-31" target="j_uifvDzS9gfMKYm5BqL-1">
          <mxGeometry width="80" relative="1" as="geometry">
            <mxPoint x="777" y="460" as="sourcePoint" />
            <mxPoint x="660" y="815" as="targetPoint" />
          </mxGeometry>
        </mxCell>
        <mxCell id="j_uifvDzS9gfMKYm5BqL-14" value="나의&lt;div&gt;정보&lt;/div&gt;" style="ellipse;whiteSpace=wrap;html=1;" vertex="1" parent="1">
          <mxGeometry x="339" y="710" width="50" height="50" as="geometry" />
        </mxCell>
        <mxCell id="j_uifvDzS9gfMKYm5BqL-15" value="use" style="html=1;verticalAlign=bottom;endArrow=block;curved=0;rounded=0;entryX=0.5;entryY=0;entryDx=0;entryDy=0;" edge="1" parent="1" target="j_uifvDzS9gfMKYm5BqL-14">
          <mxGeometry width="80" relative="1" as="geometry">
            <mxPoint x="60" y="210" as="sourcePoint" />
            <mxPoint x="248" y="220" as="targetPoint" />
          </mxGeometry>
        </mxCell>
        <mxCell id="j_uifvDzS9gfMKYm5BqL-16" value="" style="endArrow=open;dashed=1;endFill=0;html=1;rounded=0;exitX=1;exitY=0.5;exitDx=0;exitDy=0;entryX=0;entryY=0.5;entryDx=0;entryDy=0;" edge="1" parent="1" source="j_uifvDzS9gfMKYm5BqL-14" target="j_uifvDzS9gfMKYm5BqL-2">
          <mxGeometry width="160" relative="1" as="geometry">
            <mxPoint x="421.25" y="705" as="sourcePoint" />
            <mxPoint x="428.75" y="600" as="targetPoint" />
          </mxGeometry>
        </mxCell>
        <mxCell id="j_uifvDzS9gfMKYm5BqL-17" value="&amp;lt;&amp;lt; extend &amp;gt;&amp;gt;" style="edgeLabel;html=1;align=center;verticalAlign=middle;resizable=0;points=[];" vertex="1" connectable="0" parent="j_uifvDzS9gfMKYm5BqL-16">
          <mxGeometry x="0.0125" y="-2" relative="1" as="geometry">
            <mxPoint as="offset" />
          </mxGeometry>
        </mxCell>
        <mxCell id="j_uifvDzS9gfMKYm5BqL-18" value="" style="endArrow=open;dashed=1;endFill=0;html=1;rounded=0;exitX=0.5;exitY=0;exitDx=0;exitDy=0;entryX=0;entryY=0.5;entryDx=0;entryDy=0;" edge="1" parent="1" source="j_uifvDzS9gfMKYm5BqL-12" target="j_uifvDzS9gfMKYm5BqL-2">
          <mxGeometry width="160" relative="1" as="geometry">
            <mxPoint x="440" y="730" as="sourcePoint" />
            <mxPoint x="460" y="800" as="targetPoint" />
          </mxGeometry>
        </mxCell>
        <mxCell id="j_uifvDzS9gfMKYm5BqL-19" value="&amp;lt;&amp;lt; extend &amp;gt;&amp;gt;" style="edgeLabel;html=1;align=center;verticalAlign=middle;resizable=0;points=[];" vertex="1" connectable="0" parent="j_uifvDzS9gfMKYm5BqL-18">
          <mxGeometry x="0.0125" y="-2" relative="1" as="geometry">
            <mxPoint as="offset" />
          </mxGeometry>
        </mxCell>
        <mxCell id="j_uifvDzS9gfMKYm5BqL-20" value="" style="endArrow=open;dashed=1;endFill=0;html=1;rounded=0;exitX=0.5;exitY=0;exitDx=0;exitDy=0;entryX=0;entryY=0.5;entryDx=0;entryDy=0;" edge="1" parent="1" source="j_uifvDzS9gfMKYm5BqL-11" target="j_uifvDzS9gfMKYm5BqL-2">
          <mxGeometry width="160" relative="1" as="geometry">
            <mxPoint x="510" y="820" as="sourcePoint" />
            <mxPoint x="545" y="800" as="targetPoint" />
          </mxGeometry>
        </mxCell>
        <mxCell id="j_uifvDzS9gfMKYm5BqL-21" value="&amp;lt;&amp;lt; extend &amp;gt;&amp;gt;" style="edgeLabel;html=1;align=center;verticalAlign=middle;resizable=0;points=[];" vertex="1" connectable="0" parent="j_uifvDzS9gfMKYm5BqL-20">
          <mxGeometry x="0.0125" y="-2" relative="1" as="geometry">
            <mxPoint as="offset" />
          </mxGeometry>
        </mxCell>
      </root>
    </mxGraphModel>
  </diagram>
  <diagram id="bMoRts42A71pBCK3moP_" name="USECASE">
    <mxGraphModel dx="872" dy="1779" grid="1" gridSize="10" guides="1" tooltips="1" connect="1" arrows="1" fold="1" page="1" pageScale="1" pageWidth="827" pageHeight="1169" math="0" shadow="0">
      <root>
        <mxCell id="0" />
        <mxCell id="1" parent="0" />
        <mxCell id="jfG8OaxI6jYsec2sLDl0-1" value="회원" style="shape=umlActor;verticalLabelPosition=bottom;verticalAlign=top;html=1;" vertex="1" parent="1">
          <mxGeometry x="770" y="555" width="30" height="60" as="geometry" />
        </mxCell>
        <mxCell id="jfG8OaxI6jYsec2sLDl0-2" value="개발자" style="shape=umlActor;verticalLabelPosition=bottom;verticalAlign=top;html=1;" vertex="1" parent="1">
          <mxGeometry x="770" y="280" width="30" height="60" as="geometry" />
        </mxCell>
        <mxCell id="jfG8OaxI6jYsec2sLDl0-3" value="비회원" style="shape=umlActor;verticalLabelPosition=bottom;verticalAlign=top;html=1;" vertex="1" parent="1">
          <mxGeometry x="40" y="560" width="30" height="60" as="geometry" />
        </mxCell>
        <mxCell id="rmsWWPnrS580LIzBXzxM-1" value="&lt;span style=&quot;font-size: 24px; text-wrap-mode: nowrap;&quot;&gt;오버워치 패치보드&lt;/span&gt;" style="shape=umlFrame;whiteSpace=wrap;html=1;pointerEvents=0;width=200;height=40;" vertex="1" parent="1">
          <mxGeometry x="80" y="80" width="670" height="720" as="geometry" />
        </mxCell>
        <mxCell id="ShmbVCHbjllHfHQfwxmo-1" value="회원가입" style="ellipse;whiteSpace=wrap;html=1;" vertex="1" parent="1">
          <mxGeometry x="160" y="570" width="140" height="70" as="geometry" />
        </mxCell>
        <mxCell id="ShmbVCHbjllHfHQfwxmo-3" value="전체 피드백 DB" style="ellipse;whiteSpace=wrap;html=1;" vertex="1" parent="1">
          <mxGeometry x="300" y="290" width="140" height="70" as="geometry" />
        </mxCell>
        <mxCell id="T_CVh3mc19bexQVNEhTg-1" value="use" style="html=1;verticalAlign=bottom;endArrow=block;curved=0;rounded=0;exitX=1;exitY=0.3333333333333333;exitDx=0;exitDy=0;exitPerimeter=0;entryX=0;entryY=0.5;entryDx=0;entryDy=0;" edge="1" parent="1" source="jfG8OaxI6jYsec2sLDl0-3" target="ShmbVCHbjllHfHQfwxmo-1">
          <mxGeometry width="80" relative="1" as="geometry">
            <mxPoint x="120" y="550" as="sourcePoint" />
            <mxPoint x="250" y="705" as="targetPoint" />
          </mxGeometry>
        </mxCell>
        <mxCell id="V7ryXbDuo07Z2tIihon6-1" value="패치 서비스" style="ellipse;whiteSpace=wrap;html=1;" vertex="1" parent="1">
          <mxGeometry x="534" y="370" width="140" height="70" as="geometry" />
        </mxCell>
        <mxCell id="V7ryXbDuo07Z2tIihon6-2" value="" style="edgeStyle=orthogonalEdgeStyle;rounded=0;orthogonalLoop=1;jettySize=auto;html=1;endArrow=block;endFill=0;entryX=0.5;entryY=1;entryDx=0;entryDy=0;exitX=0.5;exitY=0;exitDx=0;exitDy=0;" edge="1" parent="1" source="V7ryXbDuo07Z2tIihon6-3" target="V7ryXbDuo07Z2tIihon6-1">
          <mxGeometry relative="1" as="geometry">
            <mxPoint x="530.98" y="455" as="sourcePoint" />
            <mxPoint x="606.98" y="400" as="targetPoint" />
            <Array as="points">
              <mxPoint x="503" y="460" />
              <mxPoint x="604" y="460" />
            </Array>
          </mxGeometry>
        </mxCell>
        <mxCell id="V7ryXbDuo07Z2tIihon6-3" value="조회" style="ellipse;whiteSpace=wrap;html=1;" vertex="1" parent="1">
          <mxGeometry x="478" y="470" width="50" height="50" as="geometry" />
        </mxCell>
        <mxCell id="V7ryXbDuo07Z2tIihon6-4" value="" style="edgeStyle=orthogonalEdgeStyle;rounded=0;orthogonalLoop=1;jettySize=auto;html=1;endArrow=block;endFill=0;" edge="1" parent="1" source="V7ryXbDuo07Z2tIihon6-5" target="V7ryXbDuo07Z2tIihon6-1">
          <mxGeometry relative="1" as="geometry">
            <Array as="points">
              <mxPoint x="569" y="460" />
              <mxPoint x="604" y="460" />
            </Array>
          </mxGeometry>
        </mxCell>
        <mxCell id="V7ryXbDuo07Z2tIihon6-5" value="등록" style="ellipse;whiteSpace=wrap;html=1;" vertex="1" parent="1">
          <mxGeometry x="544" y="470" width="50" height="50" as="geometry" />
        </mxCell>
        <mxCell id="V7ryXbDuo07Z2tIihon6-6" value="" style="edgeStyle=orthogonalEdgeStyle;rounded=0;orthogonalLoop=1;jettySize=auto;html=1;endArrow=block;endFill=0;" edge="1" parent="1" source="V7ryXbDuo07Z2tIihon6-7" target="V7ryXbDuo07Z2tIihon6-1">
          <mxGeometry relative="1" as="geometry">
            <Array as="points">
              <mxPoint x="639" y="460" />
              <mxPoint x="604" y="460" />
            </Array>
          </mxGeometry>
        </mxCell>
        <mxCell id="V7ryXbDuo07Z2tIihon6-7" value="수정" style="ellipse;whiteSpace=wrap;html=1;" vertex="1" parent="1">
          <mxGeometry x="614" y="470" width="50" height="50" as="geometry" />
        </mxCell>
        <mxCell id="V7ryXbDuo07Z2tIihon6-8" value="" style="edgeStyle=orthogonalEdgeStyle;rounded=0;orthogonalLoop=1;jettySize=auto;html=1;endArrow=blockThin;endFill=0;exitX=0.5;exitY=0;exitDx=0;exitDy=0;" edge="1" parent="1" target="V7ryXbDuo07Z2tIihon6-1" source="V7ryXbDuo07Z2tIihon6-18">
          <mxGeometry relative="1" as="geometry">
            <mxPoint x="709" y="470" as="sourcePoint" />
            <Array as="points">
              <mxPoint x="709" y="470" />
              <mxPoint x="709" y="460" />
              <mxPoint x="604" y="460" />
            </Array>
          </mxGeometry>
        </mxCell>
        <mxCell id="V7ryXbDuo07Z2tIihon6-9" value="버프, 너프" style="ellipse;whiteSpace=wrap;html=1;" vertex="1" parent="1">
          <mxGeometry x="520" y="570" width="50" height="50" as="geometry" />
        </mxCell>
        <mxCell id="V7ryXbDuo07Z2tIihon6-10" value="날짜별" style="ellipse;whiteSpace=wrap;html=1;" vertex="1" parent="1">
          <mxGeometry x="470" y="570" width="50" height="50" as="geometry" />
        </mxCell>
        <mxCell id="V7ryXbDuo07Z2tIihon6-11" value="영웅별" style="ellipse;whiteSpace=wrap;html=1;" vertex="1" parent="1">
          <mxGeometry x="420" y="570" width="50" height="50" as="geometry" />
        </mxCell>
        <mxCell id="V7ryXbDuo07Z2tIihon6-12" value="" style="endArrow=open;dashed=1;endFill=0;html=1;rounded=0;exitX=0.5;exitY=0;exitDx=0;exitDy=0;" edge="1" parent="1" source="V7ryXbDuo07Z2tIihon6-11">
          <mxGeometry width="160" relative="1" as="geometry">
            <mxPoint x="465.25" y="425" as="sourcePoint" />
            <mxPoint x="500" y="520" as="targetPoint" />
          </mxGeometry>
        </mxCell>
        <mxCell id="V7ryXbDuo07Z2tIihon6-13" value="&amp;lt;&amp;lt; extend &amp;gt;&amp;gt;" style="edgeLabel;html=1;align=center;verticalAlign=middle;resizable=0;points=[];" vertex="1" connectable="0" parent="V7ryXbDuo07Z2tIihon6-12">
          <mxGeometry x="0.0125" y="-2" relative="1" as="geometry">
            <mxPoint as="offset" />
          </mxGeometry>
        </mxCell>
        <mxCell id="V7ryXbDuo07Z2tIihon6-14" value="" style="endArrow=open;dashed=1;endFill=0;html=1;rounded=0;exitX=0.5;exitY=0;exitDx=0;exitDy=0;" edge="1" parent="1" source="V7ryXbDuo07Z2tIihon6-10">
          <mxGeometry width="160" relative="1" as="geometry">
            <mxPoint x="484" y="450" as="sourcePoint" />
            <mxPoint x="500" y="520" as="targetPoint" />
          </mxGeometry>
        </mxCell>
        <mxCell id="V7ryXbDuo07Z2tIihon6-15" value="&amp;lt;&amp;lt; extend &amp;gt;&amp;gt;" style="edgeLabel;html=1;align=center;verticalAlign=middle;resizable=0;points=[];" vertex="1" connectable="0" parent="V7ryXbDuo07Z2tIihon6-14">
          <mxGeometry x="0.0125" y="-2" relative="1" as="geometry">
            <mxPoint as="offset" />
          </mxGeometry>
        </mxCell>
        <mxCell id="V7ryXbDuo07Z2tIihon6-16" value="" style="endArrow=open;dashed=1;endFill=0;html=1;rounded=0;exitX=0.5;exitY=0;exitDx=0;exitDy=0;entryX=0.5;entryY=1;entryDx=0;entryDy=0;" edge="1" parent="1" source="V7ryXbDuo07Z2tIihon6-9" target="V7ryXbDuo07Z2tIihon6-3">
          <mxGeometry width="160" relative="1" as="geometry">
            <mxPoint x="554" y="540" as="sourcePoint" />
            <mxPoint x="430" y="660" as="targetPoint" />
          </mxGeometry>
        </mxCell>
        <mxCell id="V7ryXbDuo07Z2tIihon6-17" value="&amp;lt;&amp;lt; extend &amp;gt;&amp;gt;" style="edgeLabel;html=1;align=center;verticalAlign=middle;resizable=0;points=[];" vertex="1" connectable="0" parent="V7ryXbDuo07Z2tIihon6-16">
          <mxGeometry x="0.0125" y="-2" relative="1" as="geometry">
            <mxPoint as="offset" />
          </mxGeometry>
        </mxCell>
        <mxCell id="V7ryXbDuo07Z2tIihon6-18" value="삭제" style="ellipse;whiteSpace=wrap;html=1;" vertex="1" parent="1">
          <mxGeometry x="680" y="470" width="50" height="50" as="geometry" />
        </mxCell>
        <mxCell id="V7ryXbDuo07Z2tIihon6-19" value="use" style="html=1;verticalAlign=bottom;endArrow=block;curved=0;rounded=0;exitX=0;exitY=0.3333333333333333;exitDx=0;exitDy=0;exitPerimeter=0;entryX=0.9;entryY=0.143;entryDx=0;entryDy=0;entryPerimeter=0;" edge="1" parent="1" source="jfG8OaxI6jYsec2sLDl0-2" target="V7ryXbDuo07Z2tIihon6-1">
          <mxGeometry width="80" relative="1" as="geometry">
            <mxPoint x="640" y="310" as="sourcePoint" />
            <mxPoint x="730" y="335" as="targetPoint" />
          </mxGeometry>
        </mxCell>
        <mxCell id="V7ryXbDuo07Z2tIihon6-20" value="use" style="html=1;verticalAlign=bottom;endArrow=block;curved=0;rounded=0;exitX=0;exitY=0.3333333333333333;exitDx=0;exitDy=0;exitPerimeter=0;entryX=0.5;entryY=1;entryDx=0;entryDy=0;" edge="1" parent="1" source="jfG8OaxI6jYsec2sLDl0-1" target="V7ryXbDuo07Z2tIihon6-3">
          <mxGeometry width="80" relative="1" as="geometry">
            <mxPoint x="820" y="480" as="sourcePoint" />
            <mxPoint x="430" y="660" as="targetPoint" />
          </mxGeometry>
        </mxCell>
        <mxCell id="V7ryXbDuo07Z2tIihon6-23" value="" style="edgeStyle=orthogonalEdgeStyle;rounded=0;orthogonalLoop=1;jettySize=auto;html=1;endArrow=block;endFill=0;entryX=0.5;entryY=1;entryDx=0;entryDy=0;exitX=0.5;exitY=0;exitDx=0;exitDy=0;" edge="1" parent="1" source="V7ryXbDuo07Z2tIihon6-24">
          <mxGeometry relative="1" as="geometry">
            <mxPoint x="296.98" y="375" as="sourcePoint" />
            <mxPoint x="370" y="360" as="targetPoint" />
            <Array as="points">
              <mxPoint x="269" y="380" />
              <mxPoint x="370" y="380" />
            </Array>
          </mxGeometry>
        </mxCell>
        <mxCell id="V7ryXbDuo07Z2tIihon6-24" value="읽기" style="ellipse;whiteSpace=wrap;html=1;" vertex="1" parent="1">
          <mxGeometry x="244" y="390" width="50" height="50" as="geometry" />
        </mxCell>
        <mxCell id="V7ryXbDuo07Z2tIihon6-25" value="" style="edgeStyle=orthogonalEdgeStyle;rounded=0;orthogonalLoop=1;jettySize=auto;html=1;endArrow=block;endFill=0;" edge="1" parent="1" source="V7ryXbDuo07Z2tIihon6-26">
          <mxGeometry relative="1" as="geometry">
            <Array as="points">
              <mxPoint x="335" y="380" />
              <mxPoint x="370" y="380" />
            </Array>
            <mxPoint x="370" y="360" as="targetPoint" />
          </mxGeometry>
        </mxCell>
        <mxCell id="V7ryXbDuo07Z2tIihon6-26" value="작성" style="ellipse;whiteSpace=wrap;html=1;" vertex="1" parent="1">
          <mxGeometry x="310" y="390" width="50" height="50" as="geometry" />
        </mxCell>
        <mxCell id="V7ryXbDuo07Z2tIihon6-27" value="" style="edgeStyle=orthogonalEdgeStyle;rounded=0;orthogonalLoop=1;jettySize=auto;html=1;endArrow=block;endFill=0;" edge="1" parent="1" source="V7ryXbDuo07Z2tIihon6-28">
          <mxGeometry relative="1" as="geometry">
            <Array as="points">
              <mxPoint x="405" y="380" />
              <mxPoint x="370" y="380" />
            </Array>
            <mxPoint x="370" y="360" as="targetPoint" />
          </mxGeometry>
        </mxCell>
        <mxCell id="V7ryXbDuo07Z2tIihon6-28" value="수정" style="ellipse;whiteSpace=wrap;html=1;" vertex="1" parent="1">
          <mxGeometry x="380" y="390" width="50" height="50" as="geometry" />
        </mxCell>
        <mxCell id="V7ryXbDuo07Z2tIihon6-29" value="" style="edgeStyle=orthogonalEdgeStyle;rounded=0;orthogonalLoop=1;jettySize=auto;html=1;endArrow=blockThin;endFill=0;exitX=0.5;exitY=0;exitDx=0;exitDy=0;" edge="1" parent="1" source="V7ryXbDuo07Z2tIihon6-30">
          <mxGeometry relative="1" as="geometry">
            <mxPoint x="475" y="390" as="sourcePoint" />
            <Array as="points">
              <mxPoint x="475" y="390" />
              <mxPoint x="475" y="380" />
              <mxPoint x="370" y="380" />
            </Array>
            <mxPoint x="370" y="360" as="targetPoint" />
          </mxGeometry>
        </mxCell>
        <mxCell id="V7ryXbDuo07Z2tIihon6-30" value="삭제" style="ellipse;whiteSpace=wrap;html=1;" vertex="1" parent="1">
          <mxGeometry x="446" y="390" width="50" height="50" as="geometry" />
        </mxCell>
        <mxCell id="V7ryXbDuo07Z2tIihon6-31" value="use" style="html=1;verticalAlign=bottom;endArrow=block;curved=0;rounded=0;exitX=0;exitY=0.3333333333333333;exitDx=0;exitDy=0;exitPerimeter=0;entryX=1;entryY=0.5;entryDx=0;entryDy=0;" edge="1" parent="1" source="jfG8OaxI6jYsec2sLDl0-2" target="ShmbVCHbjllHfHQfwxmo-3">
          <mxGeometry width="80" relative="1" as="geometry">
            <mxPoint x="690" y="300" as="sourcePoint" />
            <mxPoint x="580" y="380" as="targetPoint" />
          </mxGeometry>
        </mxCell>
        <mxCell id="V7ryXbDuo07Z2tIihon6-32" value="피드백 생성" style="ellipse;whiteSpace=wrap;html=1;" vertex="1" parent="1">
          <mxGeometry x="360" y="70" width="140" height="70" as="geometry" />
        </mxCell>
        <mxCell id="V7ryXbDuo07Z2tIihon6-33" value="" style="edgeStyle=orthogonalEdgeStyle;rounded=0;orthogonalLoop=1;jettySize=auto;html=1;endArrow=block;endFill=0;entryX=0.5;entryY=1;entryDx=0;entryDy=0;exitX=0.5;exitY=0;exitDx=0;exitDy=0;" edge="1" parent="1" source="V7ryXbDuo07Z2tIihon6-34" target="V7ryXbDuo07Z2tIihon6-32">
          <mxGeometry relative="1" as="geometry">
            <mxPoint x="286.98" y="215" as="sourcePoint" />
            <mxPoint x="360" y="200" as="targetPoint" />
            <Array as="points">
              <mxPoint x="259" y="220" />
              <mxPoint x="360" y="220" />
            </Array>
          </mxGeometry>
        </mxCell>
        <mxCell id="V7ryXbDuo07Z2tIihon6-34" value="읽기" style="ellipse;whiteSpace=wrap;html=1;" vertex="1" parent="1">
          <mxGeometry x="234" y="230" width="50" height="50" as="geometry" />
        </mxCell>
        <mxCell id="V7ryXbDuo07Z2tIihon6-35" value="" style="edgeStyle=orthogonalEdgeStyle;rounded=0;orthogonalLoop=1;jettySize=auto;html=1;endArrow=block;endFill=0;exitX=0.5;exitY=0;exitDx=0;exitDy=0;entryX=0.469;entryY=0.996;entryDx=0;entryDy=0;entryPerimeter=0;" edge="1" parent="1" source="V7ryXbDuo07Z2tIihon6-36" target="V7ryXbDuo07Z2tIihon6-32">
          <mxGeometry relative="1" as="geometry">
            <Array as="points">
              <mxPoint x="325" y="220" />
              <mxPoint x="360" y="220" />
              <mxPoint x="360" y="140" />
            </Array>
            <mxPoint x="290" y="150" as="targetPoint" />
          </mxGeometry>
        </mxCell>
        <mxCell id="V7ryXbDuo07Z2tIihon6-36" value="작성" style="ellipse;whiteSpace=wrap;html=1;" vertex="1" parent="1">
          <mxGeometry x="300" y="230" width="50" height="50" as="geometry" />
        </mxCell>
        <mxCell id="V7ryXbDuo07Z2tIihon6-37" value="" style="edgeStyle=orthogonalEdgeStyle;rounded=0;orthogonalLoop=1;jettySize=auto;html=1;endArrow=block;endFill=0;" edge="1" parent="1">
          <mxGeometry relative="1" as="geometry">
            <Array as="points">
              <mxPoint x="401" y="220" />
              <mxPoint x="360" y="220" />
              <mxPoint x="360" y="140" />
            </Array>
            <mxPoint x="429.97" y="140" as="targetPoint" />
            <mxPoint x="400.97" y="251.82" as="sourcePoint" />
          </mxGeometry>
        </mxCell>
        <mxCell id="V7ryXbDuo07Z2tIihon6-38" value="수정" style="ellipse;whiteSpace=wrap;html=1;" vertex="1" parent="1">
          <mxGeometry x="370" y="230" width="50" height="50" as="geometry" />
        </mxCell>
        <mxCell id="V7ryXbDuo07Z2tIihon6-39" value="" style="edgeStyle=orthogonalEdgeStyle;rounded=0;orthogonalLoop=1;jettySize=auto;html=1;endArrow=blockThin;endFill=0;exitX=0.5;exitY=0;exitDx=0;exitDy=0;entryX=0.5;entryY=1;entryDx=0;entryDy=0;" edge="1" parent="1" source="V7ryXbDuo07Z2tIihon6-40" target="V7ryXbDuo07Z2tIihon6-32">
          <mxGeometry relative="1" as="geometry">
            <mxPoint x="465" y="230" as="sourcePoint" />
            <Array as="points">
              <mxPoint x="465" y="230" />
              <mxPoint x="465" y="220" />
              <mxPoint x="360" y="220" />
            </Array>
            <mxPoint x="360" y="200" as="targetPoint" />
          </mxGeometry>
        </mxCell>
        <mxCell id="V7ryXbDuo07Z2tIihon6-40" value="삭제" style="ellipse;whiteSpace=wrap;html=1;" vertex="1" parent="1">
          <mxGeometry x="436" y="230" width="50" height="50" as="geometry" />
        </mxCell>
        <mxCell id="V7ryXbDuo07Z2tIihon6-41" value="use" style="html=1;verticalAlign=bottom;endArrow=block;curved=0;rounded=0;entryX=1;entryY=0.5;entryDx=0;entryDy=0;exitX=0;exitY=0.3333333333333333;exitDx=0;exitDy=0;exitPerimeter=0;" edge="1" parent="1" source="jfG8OaxI6jYsec2sLDl0-1" target="V7ryXbDuo07Z2tIihon6-32">
          <mxGeometry width="80" relative="1" as="geometry">
            <mxPoint x="760" y="580" as="sourcePoint" />
            <mxPoint x="740" y="580" as="targetPoint" />
          </mxGeometry>
        </mxCell>
        <mxCell id="V7ryXbDuo07Z2tIihon6-42" value="use" style="html=1;verticalAlign=bottom;endArrow=block;curved=0;rounded=0;entryX=0;entryY=0.5;entryDx=0;entryDy=0;" edge="1" parent="1" target="V7ryXbDuo07Z2tIihon6-3">
          <mxGeometry width="80" relative="1" as="geometry">
            <mxPoint x="70" y="580" as="sourcePoint" />
            <mxPoint x="220" y="615" as="targetPoint" />
          </mxGeometry>
        </mxCell>
        <mxCell id="V7ryXbDuo07Z2tIihon6-43" value="로그인" style="ellipse;whiteSpace=wrap;html=1;" vertex="1" parent="1">
          <mxGeometry x="560" y="120" width="140" height="70" as="geometry" />
        </mxCell>
        <mxCell id="MnMlqMH-2adT4RBv8x8c-1" value="" style="endArrow=open;dashed=1;endFill=0;html=1;rounded=0;exitX=1;exitY=0.5;exitDx=0;exitDy=0;entryX=0.5;entryY=0;entryDx=0;entryDy=0;" edge="1" parent="1" source="V7ryXbDuo07Z2tIihon6-32" target="V7ryXbDuo07Z2tIihon6-43">
          <mxGeometry width="160" relative="1" as="geometry">
            <mxPoint x="616" y="180" as="sourcePoint" />
            <mxPoint x="560" y="250" as="targetPoint" />
          </mxGeometry>
        </mxCell>
        <mxCell id="MnMlqMH-2adT4RBv8x8c-2" value="&amp;lt;&amp;lt; Include &amp;gt;&amp;gt;" style="edgeLabel;html=1;align=center;verticalAlign=middle;resizable=0;points=[];" vertex="1" connectable="0" parent="MnMlqMH-2adT4RBv8x8c-1">
          <mxGeometry x="0.0125" y="-2" relative="1" as="geometry">
            <mxPoint as="offset" />
          </mxGeometry>
        </mxCell>
        <mxCell id="MnMlqMH-2adT4RBv8x8c-3" value="" style="endArrow=open;dashed=1;endFill=0;html=1;rounded=0;exitX=1;exitY=0.5;exitDx=0;exitDy=0;entryX=0.5;entryY=1;entryDx=0;entryDy=0;" edge="1" parent="1" source="ShmbVCHbjllHfHQfwxmo-3" target="V7ryXbDuo07Z2tIihon6-43">
          <mxGeometry width="160" relative="1" as="geometry">
            <mxPoint x="236" y="290" as="sourcePoint" />
            <mxPoint x="180" y="360" as="targetPoint" />
          </mxGeometry>
        </mxCell>
        <mxCell id="MnMlqMH-2adT4RBv8x8c-4" value="&amp;lt;&amp;lt; Include &amp;gt;&amp;gt;" style="edgeLabel;html=1;align=center;verticalAlign=middle;resizable=0;points=[];" vertex="1" connectable="0" parent="MnMlqMH-2adT4RBv8x8c-3">
          <mxGeometry x="0.0125" y="-2" relative="1" as="geometry">
            <mxPoint as="offset" />
          </mxGeometry>
        </mxCell>
        <mxCell id="GfD_DsKmyN0NY-xZScbw-1" value="use" style="html=1;verticalAlign=bottom;endArrow=block;curved=0;rounded=0;entryX=0;entryY=1;entryDx=0;entryDy=0;exitX=1;exitY=0.3333333333333333;exitDx=0;exitDy=0;exitPerimeter=0;" edge="1" parent="1" source="jfG8OaxI6jYsec2sLDl0-3" target="V7ryXbDuo07Z2tIihon6-34">
          <mxGeometry width="80" relative="1" as="geometry">
            <mxPoint x="280" y="625" as="sourcePoint" />
            <mxPoint x="688" y="540" as="targetPoint" />
          </mxGeometry>
        </mxCell>
        <mxCell id="3rRDHJi5edNc2faW7cKR-1" value="전체" style="ellipse;whiteSpace=wrap;html=1;" vertex="1" parent="1">
          <mxGeometry x="280" y="450" width="50" height="50" as="geometry" />
        </mxCell>
        <mxCell id="3rRDHJi5edNc2faW7cKR-2" value="패치별" style="ellipse;whiteSpace=wrap;html=1;" vertex="1" parent="1">
          <mxGeometry x="194" y="440" width="50" height="50" as="geometry" />
        </mxCell>
        <mxCell id="3rRDHJi5edNc2faW7cKR-5" value="" style="endArrow=open;dashed=1;endFill=0;html=1;rounded=0;exitX=0.776;exitY=0.131;exitDx=0;exitDy=0;entryX=0.5;entryY=1;entryDx=0;entryDy=0;exitPerimeter=0;" edge="1" parent="1" source="ShmbVCHbjllHfHQfwxmo-3" target="V7ryXbDuo07Z2tIihon6-32">
          <mxGeometry width="160" relative="1" as="geometry">
            <mxPoint x="550" y="405" as="sourcePoint" />
            <mxPoint x="740" y="270" as="targetPoint" />
          </mxGeometry>
        </mxCell>
        <mxCell id="3rRDHJi5edNc2faW7cKR-6" value="&amp;lt;&amp;lt; Include &amp;gt;&amp;gt;" style="edgeLabel;html=1;align=center;verticalAlign=middle;resizable=0;points=[];" vertex="1" connectable="0" parent="3rRDHJi5edNc2faW7cKR-5">
          <mxGeometry x="0.0125" y="-2" relative="1" as="geometry">
            <mxPoint as="offset" />
          </mxGeometry>
        </mxCell>
        <mxCell id="3GtWSAjeopTittx5-kjS-1" value="로그인 사람들이랑 이어야해요" style="html=1;whiteSpace=wrap;" vertex="1" parent="1">
          <mxGeometry x="484" y="-70" width="110" height="50" as="geometry" />
        </mxCell>
        <mxCell id="3GtWSAjeopTittx5-kjS-2" value="" style="endArrow=open;dashed=1;endFill=0;html=1;rounded=0;exitX=0.46;exitY=-0.029;exitDx=0;exitDy=0;exitPerimeter=0;" edge="1" parent="1" source="V7ryXbDuo07Z2tIihon6-1" target="V7ryXbDuo07Z2tIihon6-43">
          <mxGeometry width="160" relative="1" as="geometry">
            <mxPoint x="600" y="475" as="sourcePoint" />
            <mxPoint x="790" y="340" as="targetPoint" />
          </mxGeometry>
        </mxCell>
        <mxCell id="3GtWSAjeopTittx5-kjS-3" value="&amp;lt;&amp;lt; Include &amp;gt;&amp;gt;" style="edgeLabel;html=1;align=center;verticalAlign=middle;resizable=0;points=[];" vertex="1" connectable="0" parent="3GtWSAjeopTittx5-kjS-2">
          <mxGeometry x="0.0125" y="-2" relative="1" as="geometry">
            <mxPoint as="offset" />
          </mxGeometry>
        </mxCell>
      </root>
    </mxGraphModel>
  </diagram>
</mxfile>
